<svg xmlns="http://www.w3.org/2000/svg" viewBox="0 0 64 64" fill="none">
  <defs>
    <linearGradient id="bg" x1="0" y1="0" x2="1" y2="1">
      <stop offset="0%" stop-color="#6366f1"/>
      <stop offset="100%" stop-color="#4338ca"/>
    </linearGradient>
    <linearGradient id="wave" x1="0" y1="0" x2="1" y2="0">
      <stop offset="0%" stop-color="#a5b4fc"/>
      <stop offset="100%" stop-color="#e0e7ff"/>
    </linearGradient>
  </defs>

  <!-- Chip body -->
  <rect x="14" y="14" width="36" height="36" rx="5" fill="url(#bg)"/>

  <!-- Inner chip die -->
  <rect x="20" y="20" width="24" height="24" rx="2" fill="#0d1117" opacity="0.5"/>

  <!-- Left pins -->
  <rect x="6"  y="21" width="8" height="3" rx="1.5" fill="#818cf8"/>
  <rect x="6"  y="28" width="8" height="3" rx="1.5" fill="#818cf8"/>
  <rect x="6"  y="35" width="8" height="3" rx="1.5" fill="#818cf8"/>
  <rect x="6"  y="42" width="8" height="3" rx="1.5" fill="#818cf8"/>

  <!-- Right pins -->
  <rect x="50" y="21" width="8" height="3" rx="1.5" fill="#818cf8"/>
  <rect x="50" y="28" width="8" height="3" rx="1.5" fill="#818cf8"/>
  <rect x="50" y="35" width="8" height="3" rx="1.5" fill="#818cf8"/>
  <rect x="50" y="42" width="8" height="3" rx="1.5" fill="#818cf8"/>

  <!-- Top pins -->
  <rect x="21" y="6"  width="3" height="8" rx="1.5" fill="#818cf8"/>
  <rect x="28" y="6"  width="3" height="8" rx="1.5" fill="#818cf8"/>
  <rect x="35" y="6"  width="3" height="8" rx="1.5" fill="#818cf8"/>
  <rect x="42" y="6"  width="3" height="8" rx="1.5" fill="#818cf8"/>

  <!-- Bottom pins -->
  <rect x="21" y="50" width="3" height="8" rx="1.5" fill="#818cf8"/>
  <rect x="28" y="50" width="3" height="8" rx="1.5" fill="#818cf8"/>
  <rect x="35" y="50" width="3" height="8" rx="1.5" fill="#818cf8"/>
  <rect x="42" y="50" width="3" height="8" rx="1.5" fill="#818cf8"/>

  <!-- Test waveform on die -->
  <polyline
    points="22,32 24,32 25,26 27,38 29,26 31,38 33,26 35,38 36,32 42,32"
    stroke="url(#wave)" stroke-width="2" stroke-linecap="round" stroke-linejoin="round"
  />
</svg>
