<svg width="32" height="32" viewBox="0 0 32 32" xmlns="http://www.w3.org/2000/svg">
  <!-- Dark grey gear -->
  <path d="M16 2 L18 6 L22 6 L20 10 L24 14 L20 18 L22 22 L18 22 L16 26 L14 22 L10 22 L12 18 L8 14 L12 10 L10 6 L14 6 Z" fill="#475569"/>

  <!-- Central white circle -->
  <circle cx="16" cy="16" r="8" fill="white"/>

  <!-- Green circuit board -->
  <rect x="10" y="12" width="12" height="8" rx="1" fill="#10b981"/>

  <!-- Circuit traces and components -->
  <circle cx="12" cy="14" r="0.8" fill="white"/>
  <circle cx="12" cy="18" r="0.8" fill="white"/>
  <circle cx="20" cy="18" r="0.8" fill="white"/>

  <!-- Circuit traces -->
  <line x1="12" y1="14" x2="14" y2="14" stroke="white" stroke-width="0.5"/>
  <line x1="12" y1="18" x2="14" y2="18" stroke="white" stroke-width="0.5"/>
  <line x1="18" y1="14" x2="20" y2="14" stroke="white" stroke-width="0.5"/>
  <line x1="18" y1="18" x2="20" y2="18" stroke="white" stroke-width="0.5"/>

  <!-- IC component -->
  <rect x="15" y="15" width="3" height="2" fill="none" stroke="white" stroke-width="0.5"/>
  <line x1="16" y1="15" x2="16" y2="13" stroke="white" stroke-width="0.5"/>
  <line x1="17" y1="15" x2="17" y2="13" stroke="white" stroke-width="0.5"/>
  <line x1="15" y1="16" x2="13" y2="16" stroke="white" stroke-width="0.5"/>
</svg>
